<svg width="109" height="29" viewBox="0 0 109 29" fill="none" xmlns="http://www.w3.org/2000/svg">
<path d="M106.696 22.7772C105.424 22.7772 104.787 22.1107 104.787 20.7777V10.1744C104.787 8.84139 105.424 8.17489 106.696 8.17489C107.968 8.17489 108.605 8.84139 108.605 10.1744V20.7777C108.605 22.1107 107.968 22.7772 106.696 22.7772ZM106.666 5.99363C106.019 5.99363 105.464 5.76136 105 5.29683C104.555 4.83231 104.333 4.27689 104.333 3.63059C104.333 2.98429 104.555 2.43898 105 1.99464C105.464 1.53012 106.019 1.29785 106.666 1.29785C107.312 1.29785 107.857 1.53012 108.302 1.99464C108.766 2.43898 108.998 2.98429 108.998 3.63059C108.998 4.27689 108.766 4.83231 108.302 5.29683C107.857 5.76136 107.312 5.99363 106.666 5.99363Z" fill="#1E272E"/>
<path d="M95.5522 22.7774C94.2798 22.7774 93.6436 22.1109 93.6436 20.7779V10.1746C93.6436 8.84156 94.31 8.17507 95.643 8.17507C96.0672 8.17507 96.4509 8.28615 96.7943 8.50832C97.1376 8.71028 97.3093 9.10412 97.3093 9.68983V10.1443C97.6728 9.43737 98.2282 8.87186 98.9755 8.44773C99.7228 8.02359 100.51 7.81152 101.339 7.81152C101.985 7.81152 102.48 8.01349 102.823 8.41743C103.166 8.80117 103.338 9.29599 103.338 9.9019C103.338 10.4674 103.187 10.8915 102.884 11.1743C102.581 11.4369 102.258 11.5479 101.914 11.5076C101.753 11.4874 101.571 11.4773 101.369 11.4773C101.187 11.4571 100.985 11.447 100.763 11.447C99.8339 11.447 99.0462 11.7499 98.3999 12.3558C97.7738 12.9415 97.4608 13.81 97.4608 14.9612V20.7779C97.4608 22.1109 96.8246 22.7774 95.5522 22.7774Z" fill="#1E272E"/>
<path d="M86.0042 23.1107C84.651 23.1107 83.4291 22.7976 82.3384 22.1715C81.268 21.5454 80.4197 20.6567 79.7936 19.5055C79.1877 18.3543 78.8848 17.0112 78.8848 15.4762C78.8848 13.9211 79.1877 12.578 79.7936 11.447C80.4197 10.2957 81.268 9.40708 82.3384 8.78097C83.4291 8.13467 84.651 7.81152 86.0042 7.81152C87.6805 7.81152 89.1246 8.27605 90.3364 9.20511C90.8817 9.60904 91.1241 10.0635 91.0635 10.5684C91.0231 11.0733 90.7605 11.4975 90.2758 11.8408C89.7911 12.1841 89.3669 12.3356 89.0034 12.2952C88.6601 12.2548 88.2056 12.0529 87.6401 11.6893C87.1756 11.4066 86.6303 11.2652 86.0042 11.2652C85.0347 11.2652 84.247 11.6287 83.6411 12.3558C83.0554 13.0627 82.7626 14.1029 82.7626 15.4762C82.7626 16.8294 83.0554 17.8696 83.6411 18.5967C84.247 19.3035 85.0347 19.657 86.0042 19.657C86.6101 19.657 87.1352 19.5358 87.5795 19.2934C88.1046 18.9703 88.5591 18.7683 88.9428 18.6875C89.3266 18.5866 89.7608 18.7077 90.2455 19.0511C90.7302 19.4146 91.0029 19.8388 91.0635 20.3235C91.1443 20.8082 90.9322 21.2525 90.4273 21.6565C89.2155 22.6259 87.7411 23.1107 86.0042 23.1107Z" fill="#1E272E"/>
<path d="M71.8585 23.0804C71.0102 23.0804 70.1821 22.9794 69.3743 22.7774C68.5866 22.5957 67.8393 22.2826 67.1324 21.8383C66.5669 21.4747 66.2639 21.0607 66.2235 20.5962C66.1832 20.1114 66.3548 19.657 66.7386 19.2329C67.1223 18.8289 67.5161 18.6371 67.9201 18.6573C68.3442 18.6573 68.839 18.8188 69.4046 19.142C70.1922 19.5661 71.0809 19.7782 72.0705 19.7782C72.838 19.7782 73.3732 19.6873 73.6762 19.5055C73.9791 19.3036 74.1306 18.94 74.1306 18.4149C74.1306 18.1927 74.0498 18.0009 73.8883 17.8393C73.7469 17.6575 73.4338 17.4959 72.9491 17.3546C72.4846 17.193 71.7777 17.0213 70.8284 16.8395C69.3541 16.5568 68.2129 16.0721 67.4051 15.3854C66.6174 14.6987 66.2235 13.6686 66.2235 12.2953C66.2235 11.3864 66.4659 10.5987 66.9506 9.93222C67.4354 9.24552 68.0918 8.7204 68.9198 8.35686C69.7681 7.97312 70.7173 7.78125 71.7676 7.78125C73.2016 7.78125 74.4942 8.04381 75.6454 8.56893C76.2513 8.87188 76.5946 9.25562 76.6754 9.72015C76.7764 10.1847 76.6552 10.6391 76.3119 11.0834C75.9685 11.5278 75.5848 11.76 75.1607 11.7802C74.7567 11.7802 74.2619 11.6691 73.6762 11.447C73.3732 11.3258 73.0703 11.245 72.7673 11.2046C72.4644 11.144 72.1513 11.1137 71.8282 11.1137C71.1617 11.1137 70.7073 11.2248 70.4649 11.447C70.2225 11.649 70.1013 11.8913 70.1013 12.1741C70.1013 12.376 70.1619 12.5578 70.2831 12.7194C70.4043 12.881 70.6669 13.0425 71.0708 13.2041C71.4747 13.3455 72.1008 13.5172 72.9491 13.7191C74.6254 14.1029 75.8877 14.6886 76.736 15.4763C77.6045 16.2437 78.0387 17.2738 78.0387 18.5664C78.0387 20.0811 77.453 21.2122 76.2816 21.9595C75.1304 22.7067 73.656 23.0804 71.8585 23.0804Z" fill="#1E272E"/>
<path d="M56.5154 23.1104C55.0007 23.1104 53.7586 22.6257 52.7891 21.6562C51.8399 20.6868 51.3652 19.2528 51.3652 17.3543V10.1743C51.3652 8.8413 52.0014 8.1748 53.2738 8.1748C54.5462 8.1748 55.1824 8.8413 55.1824 10.1743V16.4454C55.1824 17.4957 55.3945 18.2934 55.8186 18.8388C56.2428 19.3841 56.7982 19.6567 57.4849 19.6567C58.2524 19.6567 58.8785 19.3841 59.3632 18.8388C59.8681 18.2732 60.1206 17.3947 60.1206 16.2031V10.1743C60.1206 8.8413 60.7568 8.1748 62.0292 8.1748C63.3016 8.1748 63.9378 8.8413 63.9378 10.1743V20.7777C63.9378 22.1106 63.3723 22.7771 62.2413 22.7771C61.1102 22.7771 60.5144 22.5045 60.4538 21.9592L60.3326 21.1412C59.9489 21.6461 59.4339 22.1006 58.7876 22.5045C58.1615 22.9084 57.4041 23.1104 56.5154 23.1104Z" fill="#1E272E"/>
<path d="M43.8253 23.0804C42.977 23.0804 42.1489 22.9794 41.3411 22.7774C40.5534 22.5957 39.8061 22.2826 39.0992 21.8383C38.5337 21.4747 38.2307 21.0607 38.1903 20.5962C38.1499 20.1114 38.3216 19.657 38.7054 19.2329C39.0891 18.8289 39.4829 18.6371 39.8869 18.6573C40.311 18.6573 40.8058 18.8188 41.3713 19.142C42.159 19.5661 43.0477 19.7782 44.0373 19.7782C44.8048 19.7782 45.34 19.6873 45.643 19.5055C45.9459 19.3036 46.0974 18.94 46.0974 18.4149C46.0974 18.1927 46.0166 18.0009 45.8551 17.8393C45.7137 17.6575 45.4006 17.4959 44.9159 17.3546C44.4514 17.193 43.7445 17.0213 42.7952 16.8395C41.3209 16.5568 40.1797 16.0721 39.3719 15.3854C38.5842 14.6987 38.1903 13.6686 38.1903 12.2953C38.1903 11.3864 38.4327 10.5987 38.9174 9.93222C39.4022 9.24552 40.0586 8.7204 40.8866 8.35686C41.7349 7.97312 42.6841 7.78125 43.7344 7.78125C45.1684 7.78125 46.461 8.04381 47.6122 8.56893C48.2181 8.87188 48.5614 9.25562 48.6422 9.72015C48.7432 10.1847 48.622 10.6391 48.2787 11.0834C47.9353 11.5278 47.5516 11.76 47.1275 11.7802C46.7235 11.7802 46.2287 11.6691 45.643 11.447C45.34 11.3258 45.0371 11.245 44.7341 11.2046C44.4312 11.144 44.1181 11.1137 43.795 11.1137C43.1285 11.1137 42.674 11.2248 42.4317 11.447C42.1893 11.649 42.0681 11.8913 42.0681 12.1741C42.0681 12.376 42.1287 12.5578 42.2499 12.7194C42.3711 12.881 42.6337 13.0425 43.0376 13.2041C43.4415 13.3455 44.0676 13.5172 44.9159 13.7191C46.5922 14.1029 47.8545 14.6886 48.7028 15.4763C49.5713 16.2437 50.0055 17.2738 50.0055 18.5664C50.0055 20.0811 49.4198 21.2122 48.2484 21.9595C47.0972 22.7067 45.6228 23.0804 43.8253 23.0804Z" fill="#1E272E"/>
<path d="M17.1691 26.1053C23.6192 26.1053 28.848 20.8765 28.848 14.4264C28.848 7.97638 23.6192 2.74756 17.1691 2.74756C10.7191 2.74756 5.49023 7.97638 5.49023 14.4264C5.49023 20.8765 10.7191 26.1053 17.1691 26.1053Z" fill="#F8D248"/>
<path d="M1.98633 11.6747L1.54102 17.1151L4.64978 22.4084L14.4802 22.6604L16.1606 19.3836L19.7735 15.8548L23.3024 15.2666L23.8065 15.1826L24.7308 13.6702L23.8065 12.3259L22.0421 10.7295H17.2529L1.98633 11.6747Z" fill="#FBFFFF"/>
<path d="M2.22016 12.6428C2.03195 13.7099 2.04371 14.7878 2.22016 15.8532C2.44449 17.2144 2.90745 18.489 3.74345 19.6064C4.21145 20.2324 4.666 20.8701 5.16172 21.4734C5.28944 21.6288 5.54654 21.7565 5.74819 21.7616C8.39989 21.8288 11.0516 21.8733 13.7033 21.9195C14.3309 21.9305 14.4133 21.8338 14.5233 21.202C14.6082 20.7172 14.672 20.2114 14.8628 19.7652C15.5114 18.2487 16.5331 17.0144 17.8144 15.9734C19.1915 14.8551 20.7392 14.4215 22.4893 14.6349C22.7926 14.6719 23.106 14.6744 23.4094 14.6391C23.7555 14.5988 23.8505 14.3283 23.8933 14.0123C24.0227 13.0629 23.3178 12.4008 22.6666 12.0345C21.529 11.3942 20.3039 11.5505 19.0856 11.7102C18.8781 11.7371 18.6723 11.7791 18.4639 11.8009C17.7791 11.8715 17.0918 11.9269 16.4096 12.0143C16.5499 11.28 16.7028 10.5498 16.8885 9.8323C17.0154 9.83482 17.1179 9.8365 17.2195 9.82894C18.1068 9.76088 18.9941 9.68443 19.8813 9.61637C21.5223 9.49034 23.043 9.76677 24.3722 10.8364C25.825 12.0059 26.3106 13.8502 25.6527 15.3642C25.2998 16.1767 24.6638 16.6918 23.7026 16.6464C23.1161 16.6187 22.5297 16.5666 21.944 16.5733C21.5315 16.5783 21.1005 16.6002 20.7131 16.7237C19.6503 17.064 18.784 17.7185 18.0673 18.5654C17.2389 19.5451 16.6104 20.6231 16.5877 21.9498C16.5566 23.7663 16.5524 25.5828 16.5348 27.3985C16.5281 28.1085 16.1248 28.8168 15.3156 28.7714C15.1207 28.7605 14.9241 28.7874 14.73 28.7739C12.9673 28.6471 11.2045 28.521 9.44258 28.3807C8.45618 28.3026 7.4723 28.1934 6.48673 28.1085C5.7255 28.0438 4.96259 27.9993 4.20137 27.9363C4.05181 27.9237 3.89805 27.8909 3.75942 27.8354C3.09061 27.5657 2.7873 27.0473 2.78394 26.3424C2.77889 25.1266 2.80074 23.91 2.76377 22.695C2.75369 22.369 2.65034 21.9884 2.45541 21.7364C1.63117 20.6743 1.06235 19.4838 0.622921 18.2319C0.196936 17.0186 0.0162913 15.7381 0.0011676 14.4635C-0.0181572 12.8528 0.201137 11.2665 0.753154 9.72223C1.10016 8.75179 1.57068 7.87966 2.2168 7.09743C2.25629 7.04953 2.29073 7.00248 2.3235 6.95459C2.3235 8.70726 2.3235 10.4204 2.3235 12.1723C2.28401 12.3277 2.24872 12.4848 2.221 12.6428H2.22016Z" fill="#1E272E"/>
<path d="M14.1199 12.9419C12.7789 12.9419 11.6875 11.8513 11.6875 10.5095V2.90645C11.6875 1.8125 12.5781 0.921875 13.6721 0.921875C15.013 0.921875 16.1045 2.0133 16.1045 3.35428V10.9573C16.1045 12.0513 15.2139 12.9419 14.1199 12.9419Z" fill="#FBFFFF"/>
<path d="M13.6719 1.84426C14.5045 1.84426 15.1818 2.52146 15.1818 3.35411V10.9572C15.1818 11.5327 14.6953 12.0192 14.1197 12.0192C13.2871 12.0192 12.6099 11.342 12.6099 10.5093V2.90628C12.6099 2.33074 13.0964 1.84426 13.6719 1.84426ZM13.6719 0C12.073 0 10.7656 1.3082 10.7656 2.90628V10.5093C10.7656 12.3544 12.2746 13.8634 14.1197 13.8634C15.7187 13.8634 17.026 12.5552 17.026 10.9572V3.35411C17.026 1.50901 15.517 0 13.6719 0Z" fill="#1E272E"/>
<path d="M9.58356 13.3768C8.31484 13.3768 7.28223 12.3442 7.28223 11.0754V3.52366C7.28223 2.49776 8.11739 1.6626 9.14329 1.6626H9.36594C10.6347 1.6626 11.6673 2.69521 11.6673 3.96393V11.6409C11.6673 12.5987 10.8884 13.3776 9.93056 13.3776H9.58356V13.3768Z" fill="#FBFFFF"/>
<path d="M9.36628 2.56868C10.1351 2.56868 10.761 3.19463 10.761 3.96342V11.6404C10.761 12.0908 10.3804 12.4714 9.93006 12.4714H9.58305C8.81426 12.4714 8.1883 11.8454 8.1883 11.0766V3.52399C8.1883 3.00642 8.62521 2.56952 9.14278 2.56952H9.36544M9.36628 0.756348H9.14362C7.622 0.756348 6.37598 2.00154 6.37598 3.52399V11.0766C6.37598 12.8402 7.81945 14.2837 9.58305 14.2837H9.93006C11.3836 14.2837 12.5733 13.094 12.5733 11.6404V3.96342C12.5733 2.19982 11.1299 0.756348 9.36628 0.756348Z" fill="#1E272E"/>
<path d="M5.10046 13.9078C3.86872 13.9078 2.86719 12.9063 2.86719 11.6746V5.62676C2.86719 4.63027 3.67799 3.82031 4.67363 3.82031H5.00804C6.23978 3.82031 7.24131 4.82184 7.24131 6.05358V12.3266C7.24131 13.1987 6.53217 13.9078 5.66004 13.9078H5.10046Z" fill="#FBFFFF"/>
<path d="M5.00688 4.70031C5.75298 4.70031 6.36045 5.30778 6.36045 6.05389V12.3269C6.36045 12.7075 6.03949 13.0285 5.65888 13.0285H5.0993C4.35319 13.0285 3.74572 12.421 3.74572 11.6749V5.62706C3.74572 5.12462 4.17003 4.70031 4.67247 4.70031H5.00688ZM5.00688 2.94092H4.67247C3.19539 2.94092 1.98633 4.14998 1.98633 5.62706V11.6749C1.98633 13.3872 3.38695 14.7878 5.0993 14.7878H5.65888C7.01245 14.7878 8.11985 13.6805 8.11985 12.3269V6.05389C8.11985 4.34154 6.71922 2.94092 5.00688 2.94092Z" fill="#1E272E"/>
<path d="M6.99402 16.027C6.74784 16.874 6.63525 17.7276 6.63861 18.567C5.93284 17.3201 5.70934 15.8019 6.14037 14.3172C6.38991 13.4577 6.83102 12.7074 7.40236 12.0957C7.73845 12.4906 8.08713 12.8544 8.3434 13.2661C7.75357 14.0794 7.29061 15.007 6.99402 16.0279V16.027Z" fill="#1E272E"/>
<path d="M23.4114 19.5768C23.7827 19.5768 24.0836 19.2758 24.0836 18.9046C24.0836 18.5334 23.7827 18.2324 23.4114 18.2324C23.0402 18.2324 22.7393 18.5334 22.7393 18.9046C22.7393 19.2758 23.0402 19.5768 23.4114 19.5768Z" fill="#1E272E"/>
<path d="M19.0423 6.72177C19.4135 6.72177 19.7144 6.42083 19.7144 6.04961C19.7144 5.67838 19.4135 5.37744 19.0423 5.37744C18.6711 5.37744 18.3701 5.67838 18.3701 6.04961C18.3701 6.42083 18.6711 6.72177 19.0423 6.72177Z" fill="#1E272E"/>
<path d="M22.0677 8.06616C22.5318 8.06616 22.908 7.68998 22.908 7.22595C22.908 6.76192 22.5318 6.38574 22.0677 6.38574C21.6037 6.38574 21.2275 6.76192 21.2275 7.22595C21.2275 7.68998 21.6037 8.06616 22.0677 8.06616Z" fill="#1E272E"/>
<path d="M22.3191 21.3904L20.7311 20.9905L20.3026 19.4092L19.875 21.0056L18.2861 21.461L19.875 21.8609L20.3026 23.4422L20.7311 21.8458L22.3191 21.3904Z" fill="#1E272E"/>
<path d="M18.8037 27.4469C24.8608 26.2227 29.4214 20.8698 29.4214 14.4514C29.4214 8.12632 24.9927 2.83637 19.0667 1.51221" stroke="#1E272E" stroke-width="1.93584" stroke-miterlimit="10" stroke-linecap="round"/>
</svg>
